<svg width="64" height="128" viewBox="0 0 64 128" fill="none" xmlns="http://www.w3.org/2000/svg">
<g clip-path="url(#clip0)">
<g clip-path="url(#clip1)">
<path d="M32.0006 114.241C30.8536 114.241 29.7067 113.803 28.8322 112.929L1.31367 85.41C-0.436872 83.6595 -0.436872 80.8213 1.31367 79.0714C3.0635 77.3216 5.90113 77.3216 7.65181 79.0714L32.0006 103.422L56.3495 79.0723C58.1 77.3225 60.9374 77.3225 62.6871 79.0723C64.4385 80.8221 64.4385 83.6603 62.6871 85.4109L35.1689 112.93C34.294 113.804 33.1472 114.241 32.0006 114.241Z" fill="black"/>
</g>
<g clip-path="url(#clip2)">
<path d="M50.2409 31.9994C50.2409 33.1464 49.8029 34.2933 48.9288 35.1678L21.41 62.6863C19.6595 64.4369 16.8213 64.4369 15.0714 62.6863C13.3216 60.9365 13.3216 58.0989 15.0714 56.3482L39.4216 31.9994L15.0723 7.65052C13.3225 5.89998 13.3225 3.06263 15.0723 1.31294C16.8221 -0.438447 19.6603 -0.438447 21.4109 1.31294L48.9297 28.8311C49.8039 29.706 50.2409 30.8528 50.2409 31.9994Z" fill="black"/>
</g>
</g>
<defs>
<clipPath id="clip0">
<rect width="64" height="128" fill="white"/>
</clipPath>
<clipPath id="clip1">
<rect width="64" height="64" fill="white" transform="translate(0 64)"/>
</clipPath>
<clipPath id="clip2">
<rect width="64" height="64" fill="white" transform="translate(0 64) rotate(-90)"/>
</clipPath>
</defs>
</svg>
