<svg width="64" height="128" viewBox="0 0 64 128" fill="none" xmlns="http://www.w3.org/2000/svg">
<g clip-path="url(#clip0)">
<path d="M58.1104 8.03339H5.88963C2.64213 8.03339 0 10.6754 0 13.927C0 17.1745 2.64213 19.8166 5.88963 19.8166H58.1104C61.3579 19.8166 64 17.1745 64 13.927C64 10.6754 61.3579 8.03339 58.1104 8.03339Z" fill="black"/>
<path d="M58.1104 26.1084H5.88963C2.64213 26.1084 0 28.7504 0 32.002C0 35.2495 2.64213 37.8916 5.88963 37.8916H58.1104C61.3579 37.8916 64 35.2495 64 32.002C64 28.7504 61.3579 26.1084 58.1104 26.1084Z" fill="black"/>
<path d="M58.1104 44.1834H5.88963C2.64213 44.1834 0 46.8255 0 50.077C0 53.3245 2.64213 55.9666 5.88963 55.9666H58.1104C61.3579 55.9666 64 53.3245 64 50.077C64 46.8255 61.3579 44.1834 58.1104 44.1834Z" fill="black"/>
</g>
<g clip-path="url(#clip1)">
<path d="M58.1104 72.0334H5.88963C2.64213 72.0334 0 74.6754 0 77.927C0 81.1745 2.64213 83.8166 5.88963 83.8166H58.1104C61.3579 83.8166 64 81.1745 64 77.927C64 74.6754 61.3579 72.0334 58.1104 72.0334Z" fill="white"/>
<path d="M58.1104 90.1084H5.88963C2.64213 90.1084 0 92.7504 0 96.002C0 99.2495 2.64213 101.892 5.88963 101.892H58.1104C61.3579 101.892 64 99.2495 64 96.002C64 92.7504 61.3579 90.1084 58.1104 90.1084V90.1084Z" fill="white"/>
<path d="M58.1104 108.183H5.88963C2.64213 108.183 0 110.826 0 114.077C0 117.325 2.64213 119.967 5.88963 119.967H58.1104C61.3579 119.967 64 117.325 64 114.077C64 110.826 61.3579 108.183 58.1104 108.183Z" fill="white"/>
</g>
<defs>
<clipPath id="clip0">
<rect width="64" height="64" fill="white"/>
</clipPath>
<clipPath id="clip1">
<rect width="64" height="64" fill="white" transform="translate(0 64)"/>
</clipPath>
</defs>
</svg>
